<?xml version="1.0" encoding="UTF-8" standalone="no"?>
<!DOCTYPE svg PUBLIC "-//W3C//DTD SVG 1.1//EN"
 "http://www.w3.org/Graphics/SVG/1.1/DTD/svg11.dtd">
<!-- Generated by graphviz version 2.36.0 (20140111.2315)
 -->
<!-- Title: VDJML Pages: 1 -->
<svg width="450pt" height="540pt"
 viewBox="0.00 0.00 450.38 540.00" xmlns="http://www.w3.org/2000/svg" xmlns:xlink="http://www.w3.org/1999/xlink">
<g id="graph0" class="graph" transform="scale(0.574468 0.574468) rotate(0) translate(4 936)">
<title>VDJML</title>
<polygon fill="white" stroke="none" points="-4,4 -4,-936 780,-936 780,4 -4,4"/>
<!-- vdjml -->
<g id="node1" class="node"><title>vdjml</title>
<g id="a_node1"><a xlink:href="./index.html#element-vdjml" xlink:title="vdjml" target="_top">
<polygon fill="none" stroke="black" points="307.5,-1 307.5,-47 386.5,-47 386.5,-1 307.5,-1"/>
<text text-anchor="start" x="324" y="-32.8" font-family="DejaVuSans" font-weight="bold" font-size="14.00">vdjml</text>
<polyline fill="none" stroke="black" points="307.5,-24 386.5,-24 "/>
<text text-anchor="start" x="315.5" y="-8.8" font-family="DejaVuSans" font-size="14.00">+version</text>
</a>
</g>
</g>
<!-- meta -->
<g id="node2" class="node"><title>meta</title>
<g id="a_node2"><a xlink:href="./index.html#element-meta" xlink:title="meta" target="_top">
<polygon fill="none" stroke="black" points="206.5,-85 206.5,-131 265.5,-131 265.5,-85 206.5,-85"/>
<text text-anchor="start" x="214.5" y="-116.8" font-family="DejaVuSans" font-weight="bold" font-size="14.00">meta</text>
<polyline fill="none" stroke="black" points="206.5,-108 265.5,-108 "/>
<text text-anchor="start" x="229" y="-92.8" font-family="DejaVuSans" font-size="14.00">...</text>
</a>
</g>
</g>
<!-- meta&#45;&gt;vdjml -->
<g id="edge1" class="edge"><title>meta&#45;&gt;vdjml</title>
<path fill="none" stroke="black" d="M265.746,-85.0255C278.561,-75.5582 293.731,-64.3519 307.472,-54.2005"/>
<polygon fill="black" stroke="black" points="307.52,-54.1654 309.969,-47.383 317.172,-47.0352 314.723,-53.8176 307.52,-54.1654"/>
<text text-anchor="middle" x="275.733" y="-59.0069" font-family="DejaVuSans" font-size="12.00">1</text>
</g>
<!-- generator -->
<g id="node3" class="node"><title>generator</title>
<g id="a_node3"><a xlink:href="./index.html#element-generator" xlink:title="generator" target="_top">
<polygon fill="none" stroke="black" points="-0.5,-184 -0.5,-260 96.5,-260 96.5,-184 -0.5,-184"/>
<text text-anchor="start" x="7.5" y="-245.8" font-family="DejaVuSans" font-weight="bold" font-size="14.00">generator</text>
<polyline fill="none" stroke="black" points="-0.5,-237 96.5,-237 "/>
<text text-anchor="start" x="9" y="-221.8" font-family="DejaVuSans" font-size="14.00">+name</text>
<text text-anchor="start" x="9" y="-206.8" font-family="DejaVuSans" font-size="14.00">+version</text>
<text text-anchor="start" x="9" y="-191.8" font-family="DejaVuSans" font-size="14.00">+time_gmt</text>
</a>
</g>
</g>
<!-- generator&#45;&gt;meta -->
<g id="edge3" class="edge"><title>generator&#45;&gt;meta</title>
<path fill="none" stroke="black" d="M96.7704,-184.021C104.73,-178.445 112.994,-172.92 121,-168 145.042,-153.226 173.214,-138.73 195.657,-127.804"/>
<polygon fill="black" stroke="black" points="195.681,-127.792 199.352,-121.586 206.494,-122.587 202.822,-128.794 195.681,-127.792"/>
<text text-anchor="middle" x="107.382" y="-158.285" font-family="DejaVuSans" font-size="12.00">0..1</text>
</g>
<!-- aligner -->
<g id="node4" class="node"><title>aligner</title>
<g id="a_node4"><a xlink:href="./index.html#element-aligner" xlink:title="aligner" target="_top">
<polygon fill="none" stroke="black" points="146.5,-169 146.5,-275 241.5,-275 241.5,-169 146.5,-169"/>
<text text-anchor="start" x="165" y="-260.8" font-family="DejaVuSans" font-weight="bold" font-size="14.00">aligner</text>
<polyline fill="none" stroke="black" points="146.5,-252 241.5,-252 "/>
<text text-anchor="start" x="154.5" y="-236.8" font-family="DejaVuSans" font-size="14.00">+aligner_id</text>
<text text-anchor="start" x="154.5" y="-221.8" font-family="DejaVuSans" font-size="14.00">+name</text>
<text text-anchor="start" x="154.5" y="-206.8" font-family="DejaVuSans" font-size="14.00">   version</text>
<text text-anchor="start" x="154.5" y="-191.8" font-family="DejaVuSans" font-size="14.00">   run_id</text>
<text text-anchor="start" x="154.5" y="-176.8" font-family="DejaVuSans" font-size="14.00">   uri</text>
</a>
</g>
</g>
<!-- aligner&#45;&gt;meta -->
<g id="edge4" class="edge"><title>aligner&#45;&gt;meta</title>
<path fill="none" stroke="black" d="M213.525,-168.935C216.864,-160.03 220.253,-150.993 223.352,-142.728"/>
<polygon fill="black" stroke="black" points="223.432,-142.514 221.794,-135.492 227.646,-131.278 229.284,-138.301 223.432,-142.514"/>
<text text-anchor="middle" x="209.422" y="-141.173" font-family="DejaVuSans" font-size="12.00">0..*</text>
</g>
<!-- parameters -->
<g id="node5" class="node"><title>parameters</title>
<g id="a_node5"><a xlink:href="./index.html#element-parameters" xlink:title="parameters" target="_top">
<polygon fill="none" stroke="black" points="139,-313 139,-359 249,-359 249,-313 139,-313"/>
<text text-anchor="start" x="147" y="-344.8" font-family="DejaVuSans" font-weight="bold" font-size="14.00">parameters</text>
<polyline fill="none" stroke="black" points="139,-336 249,-336 "/>
<text text-anchor="start" x="191.5" y="-320.8" font-family="DejaVuSans" font-size="14.00"> </text>
</a>
</g>
</g>
<!-- parameters&#45;&gt;aligner -->
<g id="edge6" class="edge"><title>parameters&#45;&gt;aligner</title>
<path fill="none" stroke="black" d="M194,-312.872C194,-305.337 194,-296.491 194,-287.341"/>
<polygon fill="black" stroke="black" points="194,-287.221 190,-281.221 194,-275.221 198,-281.221 194,-287.221"/>
<text text-anchor="middle" x="181.5" y="-288.122" font-family="DejaVuSans" font-size="12.00">0..1</text>
</g>
<!-- germline_db -->
<g id="node6" class="node"><title>germline_db</title>
<g id="a_node6"><a xlink:href="./index.html#element-germline_db" xlink:title="germline_db" target="_top">
<polygon fill="none" stroke="black" points="291.5,-169 291.5,-275 410.5,-275 410.5,-169 291.5,-169"/>
<text text-anchor="start" x="299.5" y="-260.8" font-family="DejaVuSans" font-weight="bold" font-size="14.00">germline_db</text>
<polyline fill="none" stroke="black" points="291.5,-252 410.5,-252 "/>
<text text-anchor="start" x="317" y="-236.8" font-family="DejaVuSans" font-size="14.00">+gl_db_id</text>
<text text-anchor="start" x="317" y="-221.8" font-family="DejaVuSans" font-size="14.00">+name</text>
<text text-anchor="start" x="317" y="-206.8" font-family="DejaVuSans" font-size="14.00">+species</text>
<text text-anchor="start" x="317" y="-191.8" font-family="DejaVuSans" font-size="14.00">+version</text>
<text text-anchor="start" x="317" y="-176.8" font-family="DejaVuSans" font-size="14.00">   uri</text>
</a>
</g>
</g>
<!-- germline_db&#45;&gt;meta -->
<g id="edge5" class="edge"><title>germline_db&#45;&gt;meta</title>
<path fill="none" stroke="black" d="M297.54,-168.935C287.334,-158.995 276.957,-148.889 267.705,-139.878"/>
<polygon fill="black" stroke="black" points="267.472,-139.651 260.383,-138.33 258.875,-131.278 265.964,-132.599 267.472,-139.651"/>
<text text-anchor="middle" x="273.308" y="-159.684" font-family="DejaVuSans" font-size="12.00">0..*</text>
</g>
<!-- read_results -->
<g id="node7" class="node"><title>read_results</title>
<g id="a_node7"><a xlink:href="./index.html#element-read_results" xlink:title="read_results" target="_top">
<polygon fill="none" stroke="black" points="400,-85 400,-131 516,-131 516,-85 400,-85"/>
<text text-anchor="start" x="408" y="-116.8" font-family="DejaVuSans" font-weight="bold" font-size="14.00">read_results</text>
<polyline fill="none" stroke="black" points="400,-108 516,-108 "/>
<text text-anchor="start" x="455.5" y="-92.8" font-family="DejaVuSans" font-size="14.00"> </text>
</a>
</g>
</g>
<!-- read_results&#45;&gt;vdjml -->
<g id="edge2" class="edge"><title>read_results&#45;&gt;vdjml</title>
<path fill="none" stroke="black" d="M427.962,-84.8096C415.376,-75.5117 400.559,-64.566 387.065,-54.5973"/>
<polygon fill="black" stroke="black" points="386.714,-54.3384 379.511,-53.9906 377.062,-47.2081 384.265,-47.5559 386.714,-54.3384"/>
<text text-anchor="middle" x="403.12" y="-78.8992" font-family="DejaVuSans" font-size="12.00">1</text>
</g>
<!-- read -->
<g id="node8" class="node"><title>read</title>
<g id="a_node8"><a xlink:href="./index.html#element-read" xlink:title="read" target="_top">
<polygon fill="none" stroke="black" points="460.5,-191.5 460.5,-252.5 539.5,-252.5 539.5,-191.5 460.5,-191.5"/>
<text text-anchor="start" x="481.5" y="-238.3" font-family="DejaVuSans" font-weight="bold" font-size="14.00">read</text>
<polyline fill="none" stroke="black" points="460.5,-229.5 539.5,-229.5 "/>
<text text-anchor="start" x="468.5" y="-214.3" font-family="DejaVuSans" font-size="14.00">+read_id</text>
<text text-anchor="start" x="493" y="-199.3" font-family="DejaVuSans" font-size="14.00">...</text>
</a>
</g>
</g>
<!-- read&#45;&gt;read_results -->
<g id="edge7" class="edge"><title>read&#45;&gt;read_results</title>
<path fill="none" stroke="black" d="M488.855,-191.28C483.2,-176.201 476.312,-157.833 470.48,-142.281"/>
<polygon fill="black" stroke="black" points="470.478,-142.274 464.626,-138.06 466.264,-131.038 472.116,-135.251 470.478,-142.274"/>
<text text-anchor="middle" x="469.549" y="-172.297" font-family="DejaVuSans" font-size="12.00">0..*</text>
</g>
<!-- vdj_alignment -->
<g id="node9" class="node"><title>vdj_alignment</title>
<g id="a_node9"><a xlink:href="./index.html#element-vdj_alignment" xlink:title="vdj_alignment" target="_top">
<polygon fill="none" stroke="black" points="433.5,-313 433.5,-359 566.5,-359 566.5,-313 433.5,-313"/>
<text text-anchor="start" x="441.5" y="-344.8" font-family="DejaVuSans" font-weight="bold" font-size="14.00">vdj_alignment</text>
<polyline fill="none" stroke="black" points="433.5,-336 566.5,-336 "/>
<text text-anchor="start" x="497.5" y="-320.8" font-family="DejaVuSans" font-size="14.00"> </text>
</a>
</g>
</g>
<!-- vdj_alignment&#45;&gt;read -->
<g id="edge8" class="edge"><title>vdj_alignment&#45;&gt;read</title>
<path fill="none" stroke="black" d="M500,-312.872C500,-299.156 500,-281.097 500,-264.767"/>
<polygon fill="black" stroke="black" points="500,-264.718 496,-258.718 500,-252.718 504,-258.718 500,-264.718"/>
<text text-anchor="middle" x="487.5" y="-288.122" font-family="DejaVuSans" font-size="12.00">0..1</text>
</g>
<!-- segment_match -->
<g id="node10" class="node"><title>segment_match</title>
<g id="a_node10"><a xlink:href="./index.html#element-segment_match" xlink:title="segment_match" target="_top">
<polygon fill="none" stroke="black" points="276,-396.5 276,-637.5 434,-637.5 434,-396.5 276,-396.5"/>
<text text-anchor="start" x="290" y="-623.3" font-family="DejaVuSans" font-weight="bold" font-size="14.00">segment_match</text>
<polyline fill="none" stroke="black" points="276,-614.5 434,-614.5 "/>
<text text-anchor="start" x="284" y="-599.3" font-family="DejaVuSans" font-size="14.00">+segment_match_id</text>
<text text-anchor="start" x="284" y="-584.3" font-family="DejaVuSans" font-size="14.00">+read_pos0</text>
<text text-anchor="start" x="284" y="-569.3" font-family="DejaVuSans" font-size="14.00">+read_len</text>
<text text-anchor="start" x="284" y="-554.3" font-family="DejaVuSans" font-size="14.00">+gl_len</text>
<text text-anchor="start" x="284" y="-539.3" font-family="DejaVuSans" font-size="14.00">   identity</text>
<text text-anchor="start" x="284" y="-524.3" font-family="DejaVuSans" font-size="14.00">   score</text>
<text text-anchor="start" x="284" y="-509.3" font-family="DejaVuSans" font-size="14.00">   insertions</text>
<text text-anchor="start" x="284" y="-494.3" font-family="DejaVuSans" font-size="14.00">   deletions</text>
<text text-anchor="start" x="284" y="-479.3" font-family="DejaVuSans" font-size="14.00">   substitutions</text>
<text text-anchor="start" x="284" y="-464.3" font-family="DejaVuSans" font-size="14.00">   stop_codon</text>
<text text-anchor="start" x="284" y="-449.3" font-family="DejaVuSans" font-size="14.00">   mutated_invariant</text>
<text text-anchor="start" x="284" y="-434.3" font-family="DejaVuSans" font-size="14.00">   inverted</text>
<text text-anchor="start" x="284" y="-419.3" font-family="DejaVuSans" font-size="14.00">   out_frame_indel</text>
<text text-anchor="start" x="284" y="-404.3" font-family="DejaVuSans" font-size="14.00">   out_frame_vdj</text>
</a>
</g>
</g>
<!-- segment_match&#45;&gt;vdj_alignment -->
<g id="edge9" class="edge"><title>segment_match&#45;&gt;vdj_alignment</title>
<path fill="none" stroke="black" d="M434.076,-418.382C448.581,-400.475 462.732,-383.006 474.181,-368.873"/>
<polygon fill="black" stroke="black" points="474.453,-368.537 475.122,-361.357 482.006,-359.213 481.338,-366.393 474.453,-368.537"/>
<text text-anchor="middle" x="437.991" y="-390.59" font-family="DejaVuSans" font-size="12.00">0..*</text>
</g>
<!-- btop -->
<g id="node11" class="node"><title>btop</title>
<g id="a_node11"><a xlink:href="./index.html#element-btop" xlink:title="btop" target="_top">
<polygon fill="none" stroke="black" points="129,-780 129,-826 183,-826 183,-780 129,-780"/>
<text text-anchor="start" x="137" y="-811.8" font-family="DejaVuSans" font-weight="bold" font-size="14.00">btop</text>
<polyline fill="none" stroke="black" points="129,-803 183,-803 "/>
<text text-anchor="start" x="153.5" y="-787.8" font-family="DejaVuSans" font-size="14.00"> </text>
</a>
</g>
</g>
<!-- btop&#45;&gt;segment_match -->
<g id="edge11" class="edge"><title>btop&#45;&gt;segment_match</title>
<path fill="none" stroke="black" d="M162.203,-779.986C170.267,-753.499 185.969,-708.312 208,-674 224.774,-647.876 246.226,-622.212 267.527,-599.482"/>
<polygon fill="black" stroke="black" points="267.716,-599.283 268.956,-592.179 275.99,-590.591 274.75,-597.695 267.716,-599.283"/>
<text text-anchor="middle" x="156.724" y="-752.494" font-family="DejaVuSans" font-size="12.00">1</text>
</g>
<!-- gl_seg_match -->
<g id="node12" class="node"><title>gl_seg_match</title>
<g id="a_node12"><a xlink:href="./index.html#element-gl_seg_match" xlink:title="gl_seg_match" target="_top">
<polygon fill="none" stroke="black" points="233.5,-735 233.5,-871 374.5,-871 374.5,-735 233.5,-735"/>
<text text-anchor="start" x="248.5" y="-856.8" font-family="DejaVuSans" font-weight="bold" font-size="14.00">gl_seg_match</text>
<polyline fill="none" stroke="black" points="233.5,-848 374.5,-848 "/>
<text text-anchor="start" x="241.5" y="-832.8" font-family="DejaVuSans" font-size="14.00">+gl_seg_match_id</text>
<text text-anchor="start" x="241.5" y="-817.8" font-family="DejaVuSans" font-size="14.00">+num_system</text>
<text text-anchor="start" x="241.5" y="-802.8" font-family="DejaVuSans" font-size="14.00">+name</text>
<text text-anchor="start" x="241.5" y="-787.8" font-family="DejaVuSans" font-size="14.00">+gl_db_id</text>
<text text-anchor="start" x="241.5" y="-772.8" font-family="DejaVuSans" font-size="14.00">+aligner_id</text>
<text text-anchor="start" x="241.5" y="-757.8" font-family="DejaVuSans" font-size="14.00">+type</text>
<text text-anchor="start" x="241.5" y="-742.8" font-family="DejaVuSans" font-size="14.00">+gl_pos0</text>
</a>
</g>
</g>
<!-- gl_seg_match&#45;&gt;segment_match -->
<g id="edge12" class="edge"><title>gl_seg_match&#45;&gt;segment_match</title>
<path fill="none" stroke="black" d="M316.086,-734.696C320.669,-709.179 326.059,-679.163 331.343,-649.737"/>
<polygon fill="black" stroke="black" points="331.398,-649.433 328.521,-642.82 333.519,-637.622 336.395,-644.234 331.398,-649.433"/>
<text text-anchor="middle" x="307.61" y="-708.077" font-family="DejaVuSans" font-size="12.00">1..*</text>
</g>
<!-- aa_substitution -->
<g id="node13" class="node"><title>aa_substitution</title>
<g id="a_node13"><a xlink:href="./index.html#element-aa_substitution" xlink:title="aa_substitution" target="_top">
<polygon fill="none" stroke="black" points="424.5,-765 424.5,-841 567.5,-841 567.5,-765 424.5,-765"/>
<text text-anchor="start" x="432.5" y="-826.8" font-family="DejaVuSans" font-weight="bold" font-size="14.00">aa_substitution</text>
<polyline fill="none" stroke="black" points="424.5,-818 567.5,-818 "/>
<text text-anchor="start" x="454.5" y="-802.8" font-family="DejaVuSans" font-size="14.00">+read_pos0</text>
<text text-anchor="start" x="454.5" y="-787.8" font-family="DejaVuSans" font-size="14.00">+read_aa</text>
<text text-anchor="start" x="454.5" y="-772.8" font-family="DejaVuSans" font-size="14.00">+gl_aa</text>
</a>
</g>
</g>
<!-- aa_substitution&#45;&gt;segment_match -->
<g id="edge13" class="edge"><title>aa_substitution&#45;&gt;segment_match</title>
<path fill="none" stroke="black" d="M477.567,-764.872C462.702,-734.933 440.861,-690.94 419.718,-648.354"/>
<polygon fill="black" stroke="black" points="419.699,-648.315 413.448,-644.72 414.363,-637.567 420.613,-641.162 419.699,-648.315"/>
<text text-anchor="middle" x="456.743" y="-747.938" font-family="DejaVuSans" font-size="12.00">0..*</text>
</g>
<!-- combination -->
<g id="node14" class="node"><title>combination</title>
<g id="a_node14"><a xlink:href="./index.html#element-combination" xlink:title="combination" target="_top">
<polygon fill="none" stroke="black" points="586.5,-494 586.5,-540 705.5,-540 705.5,-494 586.5,-494"/>
<text text-anchor="start" x="594.5" y="-525.8" font-family="DejaVuSans" font-weight="bold" font-size="14.00">combination</text>
<polyline fill="none" stroke="black" points="586.5,-517 705.5,-517 "/>
<text text-anchor="start" x="606.5" y="-501.8" font-family="DejaVuSans" font-size="14.00">+segments</text>
</a>
</g>
</g>
<!-- combination&#45;&gt;vdj_alignment -->
<g id="edge10" class="edge"><title>combination&#45;&gt;vdj_alignment</title>
<path fill="none" stroke="black" d="M627.804,-493.691C602.091,-462.167 555.001,-404.432 525.72,-368.534"/>
<polygon fill="black" stroke="black" points="525.551,-368.326 518.659,-366.205 517.966,-359.027 524.859,-361.149 525.551,-368.326"/>
<text text-anchor="middle" x="604.433" y="-481.715" font-family="DejaVuSans" font-size="12.00">0..*</text>
</g>
<!-- region -->
<g id="node15" class="node"><title>region</title>
<g id="a_node15"><a xlink:href="./index.html#element-region" xlink:title="region" target="_top">
<polygon fill="none" stroke="black" points="618,-675 618,-931 776,-931 776,-675 618,-675"/>
<text text-anchor="start" x="670.5" y="-916.8" font-family="DejaVuSans" font-weight="bold" font-size="14.00">region</text>
<polyline fill="none" stroke="black" points="618,-908 776,-908 "/>
<text text-anchor="start" x="626" y="-892.8" font-family="DejaVuSans" font-size="14.00">+name</text>
<text text-anchor="start" x="626" y="-877.8" font-family="DejaVuSans" font-size="14.00">   num_system</text>
<text text-anchor="start" x="626" y="-862.8" font-family="DejaVuSans" font-size="14.00">+aligner_id</text>
<text text-anchor="start" x="626" y="-847.8" font-family="DejaVuSans" font-size="14.00">+read_pos0</text>
<text text-anchor="start" x="626" y="-832.8" font-family="DejaVuSans" font-size="14.00">+read_len</text>
<text text-anchor="start" x="626" y="-817.8" font-family="DejaVuSans" font-size="14.00">   identity</text>
<text text-anchor="start" x="626" y="-802.8" font-family="DejaVuSans" font-size="14.00">   score</text>
<text text-anchor="start" x="626" y="-787.8" font-family="DejaVuSans" font-size="14.00">   insertions</text>
<text text-anchor="start" x="626" y="-772.8" font-family="DejaVuSans" font-size="14.00">   deletions</text>
<text text-anchor="start" x="626" y="-757.8" font-family="DejaVuSans" font-size="14.00">   substitutions</text>
<text text-anchor="start" x="626" y="-742.8" font-family="DejaVuSans" font-size="14.00">   stop_codon</text>
<text text-anchor="start" x="626" y="-727.8" font-family="DejaVuSans" font-size="14.00">   mutated_invariant</text>
<text text-anchor="start" x="626" y="-712.8" font-family="DejaVuSans" font-size="14.00">   inverted</text>
<text text-anchor="start" x="626" y="-697.8" font-family="DejaVuSans" font-size="14.00">   out_frame_indel</text>
<text text-anchor="start" x="626" y="-682.8" font-family="DejaVuSans" font-size="14.00">   out_frame_vdj</text>
</a>
</g>
</g>
<!-- region&#45;&gt;combination -->
<g id="edge14" class="edge"><title>region&#45;&gt;combination</title>
<path fill="none" stroke="black" d="M674.185,-674.952C666.109,-629.981 657.67,-582.987 652.156,-552.282"/>
<polygon fill="black" stroke="black" points="652.103,-551.985 647.105,-546.787 649.982,-540.174 654.98,-545.373 652.103,-551.985"/>
<text text-anchor="middle" x="658.055" y="-652.751" font-family="DejaVuSans" font-size="12.00">0..*</text>
</g>
</g>
</svg>
